<svg width="36" height="36" viewBox="0 0 36 36" fill="none" xmlns="http://www.w3.org/2000/svg">
<g clip-path="url(#clip0_76_335)">
<path d="M18 14.9999C20.4853 14.9999 22.5 12.9852 22.5 10.4999C22.5 8.0146 20.4853 5.99988 18 5.99988C15.5147 5.99988 13.5 8.0146 13.5 10.4999C13.5 12.9852 15.5147 14.9999 18 14.9999Z" stroke="#E0FF67" stroke-width="2.75"/>
<path d="M25.5 28.4999C27.9853 28.4999 30 26.4852 30 23.9999C30 21.5146 27.9853 19.4999 25.5 19.4999C23.0147 19.4999 21 21.5146 21 23.9999C21 26.4852 23.0147 28.4999 25.5 28.4999Z" stroke="#E0FF67" stroke-width="2.75"/>
<path d="M10.5 28.4999C12.9853 28.4999 15 26.4852 15 23.9999C15 21.5146 12.9853 19.4999 10.5 19.4999C8.01472 19.4999 6 21.5146 6 23.9999C6 26.4852 8.01472 28.4999 10.5 28.4999Z" stroke="#E0FF67" stroke-width="2.75"/>
</g>
<defs>
<clipPath id="clip0_76_335">
<rect width="36" height="36" fill="white"/>
</clipPath>
</defs>
</svg>
