<svg width="44" height="44" viewBox="0 0 44 44" fill="none" xmlns="http://www.w3.org/2000/svg">
<path d="M38.0183 0.701007C37.9072 1.6151 37.703 2.25033 37.2217 3.03328C37.0983 3.23636 36.9749 3.43945 36.8478 3.6487C36.7126 3.86655 36.5775 4.08441 36.4383 4.30886C36.2227 4.66209 36.0071 5.01532 35.7915 5.36861C35.5644 5.74017 35.3364 6.11114 35.1081 6.48199C34.6581 7.21381 34.2119 7.94796 33.7669 8.6829C33.6202 8.92523 33.4734 9.16755 33.3266 9.40988C33.2537 9.53034 33.1807 9.65079 33.1056 9.7749C32.7297 10.395 32.3529 11.0145 31.9762 11.634C31.1497 12.9931 30.324 14.3527 29.4986 15.7124C29.1257 16.3267 28.7528 16.941 28.3798 17.5552C28.2306 17.801 28.0814 18.0468 27.9321 18.2926C23.4552 25.6663 23.4552 25.6663 23.2314 26.035C23.0821 26.2809 22.9328 26.5268 22.7835 26.7728C22.4118 27.385 22.04 27.9972 21.6682 28.6093C20.8998 29.8743 20.1325 31.1398 19.3668 32.4064C18.6204 33.6406 17.8715 34.8732 17.1198 36.1042C16.8837 36.4912 16.6481 36.8786 16.4135 37.2665C16.1517 37.6983 15.887 38.1281 15.6207 38.5572C15.4868 38.7752 15.3529 38.9933 15.2149 39.218C14.8438 39.6764 14.8438 39.6764 14.3739 39.8517C14.2508 39.8634 14.1278 39.875 14.0011 39.8871C13.4068 38.6318 13.0825 37.3645 12.7633 36.0159C12.4248 34.6109 12.0768 33.2182 11.6401 31.8403C10.5783 28.475 10.5783 28.475 11.4013 26.7049C11.811 25.9475 12.2646 25.2275 12.737 24.5076C12.8717 24.2719 13.0064 24.0361 13.1452 23.7933C13.5797 23.2435 13.5797 23.2435 14.1097 23.1127C14.2998 23.1254 14.4899 23.1382 14.6858 23.1514C14.8737 23.1603 15.0616 23.1693 15.2553 23.1785C16.0325 23.2572 16.8074 23.3573 17.5826 23.4542C16.5397 21.8899 16.5397 21.8899 15.4758 20.294C16.394 18.579 17.3702 16.9098 18.3858 15.2509C18.5418 14.9953 18.6977 14.7397 18.8536 14.484C19.0959 14.0864 19.3384 13.6889 19.581 13.2915C20.1559 12.3499 20.7286 11.4068 21.2999 10.463C21.4597 10.199 21.6196 9.93513 21.7794 9.67122C22.0082 9.29346 22.2369 8.91568 22.4655 8.53775C22.942 7.74977 23.4219 6.96391 23.9029 6.17863C24.0329 5.96249 24.163 5.74635 24.2969 5.52366C24.4227 5.31858 24.5485 5.11351 24.6782 4.90222C24.7878 4.7215 24.8975 4.54078 25.0105 4.35459C25.7944 3.30118 26.5934 2.9073 27.8531 2.62344C28.1508 2.55433 28.4484 2.4852 28.746 2.41606C28.9113 2.37871 29.0766 2.34137 29.2469 2.3029C29.8751 2.15899 30.5014 2.0082 31.1277 1.85644C32.4407 1.53833 33.754 1.22191 35.0689 0.911685C35.2529 0.867384 35.4369 0.823083 35.6265 0.777439C35.7944 0.738095 35.9624 0.69875 36.1354 0.658213C36.281 0.623655 36.4265 0.589097 36.5765 0.553491C37.095 0.469182 37.5214 0.540706 38.0183 0.701007Z" fill="#FDFDFD"/>
<path d="M27.0632 21.9795C27.9109 22.6032 28.5401 23.3053 29.17 24.1389C29.373 24.4025 29.5763 24.6658 29.7798 24.929C29.8859 25.0664 29.992 25.2038 30.1013 25.3454C30.6712 26.0755 31.2572 26.7924 31.843 27.5098C32.0765 27.7962 32.3099 28.0825 32.5433 28.369C32.6523 28.5027 32.7613 28.6365 32.8736 28.7743C33.3888 29.4083 33.8974 30.0476 34.4065 30.6864C34.8791 31.2752 35.3557 31.8607 35.8327 32.4459C36.9132 33.7715 37.9827 35.1042 39.0348 36.4524C39.9032 37.5622 40.7921 38.6549 41.6864 39.7439C42.0112 40.1409 42.3323 40.5406 42.6534 40.9405C42.7754 41.0875 42.8975 41.2345 43.0232 41.3859C43.1999 41.6062 43.1999 41.6062 43.3801 41.8309C43.4881 41.9631 43.5961 42.0952 43.7074 42.2314C43.9175 42.6259 43.9175 42.6259 43.8457 43.097C43.7999 43.2196 43.754 43.3423 43.7068 43.4686C40.5068 43.4895 37.3067 43.4988 34.1078 43.4028C33.8828 43.3981 33.6578 43.3933 33.4261 43.3884C31.6756 43.326 30.5995 42.9088 29.3865 41.64C28.6484 40.7953 27.9663 39.9075 27.2805 39.0205C26.6172 38.1647 25.9325 37.3273 25.2461 36.4899C21.687 32.1338 21.687 32.1338 21.7963 30.6173C22.0303 30.0891 22.0303 30.0891 22.36 29.5672C22.4814 29.3718 22.6027 29.1764 22.7278 28.9751C22.8593 28.7697 22.9907 28.5642 23.1262 28.3525C23.3959 27.921 23.6655 27.4895 23.9352 27.058C24.0709 26.843 24.2067 26.628 24.3465 26.4065C24.9369 25.4677 25.5128 24.5203 26.0889 23.5727C26.2791 23.2613 26.4695 22.95 26.66 22.6387C26.7931 22.4212 26.9261 22.2036 27.0632 21.9795Z" fill="#FDFDFD"/>
<path d="M12.2872 8.56274C12.5289 8.56483 12.7706 8.56692 13.0196 8.56907C13.7904 8.57731 14.5607 8.59582 15.3313 8.61459C15.8543 8.62199 16.3773 8.62872 16.9003 8.63475C18.1815 8.651 19.4623 8.67567 20.7431 8.70676C20.4309 9.69291 20.0283 10.5037 19.4659 11.3666C19.2799 11.6602 19.0942 11.954 18.9088 12.248C18.6044 12.7281 18.3001 13.2082 17.9946 13.6876C17.4976 14.4677 17.005 15.2504 16.5165 16.0359C16.3499 16.3022 16.1819 16.5677 16.0124 16.8322C15.7719 17.2079 15.5364 17.5864 15.3017 17.9659C15.1629 18.186 15.024 18.4062 14.881 18.633C14.5699 19.2251 14.5699 19.2251 14.7768 19.8094C15.1207 20.4088 15.5078 20.9537 15.9239 21.5054C16.7403 22.592 16.7403 22.592 16.7403 22.8222C15.2492 22.8477 13.7967 22.7914 12.316 22.6115C12.2508 22.781 12.1857 22.9504 12.1185 23.125C11.8947 23.6649 11.8947 23.6649 11.684 23.8756C11.3348 23.8953 10.9848 23.9003 10.6351 23.8995C10.4115 23.8995 10.188 23.8994 9.9577 23.8994C9.59297 23.8978 9.59297 23.8978 9.22087 23.8961C8.84956 23.8957 8.84956 23.8957 8.47075 23.8952C7.67645 23.894 6.88216 23.8914 6.08786 23.8887C5.55088 23.8877 5.0139 23.8867 4.47692 23.8858C3.1573 23.8835 1.83768 23.88 0.518066 23.8756C1.50699 22.1303 2.51004 20.3973 3.55973 18.6876C3.81382 18.2723 4.06783 17.857 4.32179 17.4417C4.5217 17.1149 4.5217 17.1149 4.72566 16.7814C5.18675 16.0251 5.64502 15.2671 6.10267 14.5086C6.34374 14.1096 6.58485 13.7107 6.82596 13.3117C6.98178 13.0536 7.1374 12.7954 7.29282 12.5371C7.51196 12.1729 7.7319 11.8092 7.95187 11.4456C8.1405 11.1327 8.1405 11.1327 8.33295 10.8135C8.46546 10.605 8.59797 10.3964 8.7345 10.1815C8.83111 9.98277 8.83111 9.98277 8.92967 9.78003C9.71187 8.3641 10.7961 8.51428 12.2872 8.56274Z" fill="#FDFDFD"/>
</svg>
