<svg width="170" height="170" viewBox="0 0 170 170" fill="none" xmlns="http://www.w3.org/2000/svg">
<rect width="170" height="170" rx="16" fill="black"/>
<path d="M129.485 24.5202C129.17 27.1158 128.59 28.9195 127.223 31.1428C126.873 31.7195 126.522 32.2961 126.161 32.8903C125.778 33.5089 125.394 34.1275 124.998 34.7649C124.386 35.7679 123.774 36.7709 123.162 37.7741C122.517 38.8292 121.87 39.8826 121.222 40.9356C119.943 43.0136 118.677 45.0983 117.413 47.1852C116.996 47.8733 116.58 48.5614 116.163 49.2495C115.956 49.5916 115.749 49.9336 115.535 50.286C114.468 52.0468 113.398 53.806 112.328 55.5651C109.981 59.4243 107.637 63.2849 105.293 67.146C104.234 68.8903 103.175 70.6345 102.116 72.3787C101.692 73.0766 101.269 73.7746 100.845 74.4725C88.1324 95.4106 88.1324 95.4106 87.4969 96.4574C87.0729 97.1558 86.6489 97.8541 86.2249 98.5525C85.1694 100.291 84.1139 102.029 83.0579 103.767C80.8762 107.359 78.6973 110.953 76.523 114.549C74.4037 118.054 72.2769 121.554 70.1425 125.05C69.4721 126.149 68.8032 127.248 68.1369 128.35C67.3936 129.576 66.6419 130.797 65.8857 132.015C65.5055 132.634 65.1253 133.253 64.7336 133.891C63.6797 135.193 63.6797 135.193 62.3453 135.691C61.996 135.724 61.6467 135.757 61.2867 135.791C59.5993 132.227 58.6784 128.628 57.7721 124.799C56.8108 120.809 55.8227 116.855 54.5825 112.942C51.5675 103.386 51.5675 103.386 53.9047 98.3597C55.0679 96.2089 56.3558 94.1645 57.6974 92.1204C58.0799 91.451 58.4623 90.7816 58.8564 90.092C60.0903 88.531 60.0903 88.531 61.5952 88.1594C62.135 88.1957 62.6748 88.2319 63.231 88.2692C63.7646 88.2947 64.2983 88.3201 64.8481 88.3464C67.0551 88.5699 69.2556 88.8541 71.4567 89.1292C68.4954 84.6873 68.4954 84.6873 65.4744 80.1557C68.0817 75.2857 70.8536 70.5459 73.7374 65.8355C74.1803 65.1097 74.6231 64.3838 75.0656 63.6578C75.7539 62.5289 76.4423 61.4001 77.1313 60.2717C78.7638 57.5978 80.3898 54.9199 82.0122 52.2398C82.4661 51.4904 82.92 50.741 83.3739 49.9916C84.0235 48.9189 84.673 47.8462 85.3219 46.7731C86.6751 44.5355 88.0378 42.304 89.4036 40.0742C89.7728 39.4604 90.142 38.8467 90.5224 38.2144C90.8796 37.632 91.2369 37.0497 91.6049 36.4497C91.9164 35.9366 92.2279 35.4234 92.5487 34.8947C94.7745 31.9035 97.0433 30.7851 100.62 29.979C101.466 29.7828 102.311 29.5865 103.156 29.3901C103.625 29.2841 104.095 29.1781 104.578 29.0688C106.362 28.6602 108.14 28.232 109.919 27.8011C113.647 26.8978 117.376 25.9993 121.11 25.1184C121.632 24.9926 122.155 24.8668 122.693 24.7372C123.17 24.6255 123.647 24.5138 124.138 24.3986C124.552 24.3005 124.965 24.2024 125.391 24.1013C126.863 23.8619 128.074 24.065 129.485 24.5202Z" fill="#FDFDFD"/>
<path d="M98.3772 84.9415C100.784 86.7125 102.571 88.7062 104.36 91.0734C104.936 91.8218 105.513 92.5696 106.091 93.3168C106.392 93.707 106.694 94.0972 107.004 94.4992C108.622 96.5723 110.286 98.608 111.95 100.645C112.613 101.458 113.275 102.271 113.938 103.085C114.248 103.465 114.557 103.844 114.876 104.236C116.339 106.036 117.783 107.851 119.229 109.665C120.571 111.337 121.924 113 123.279 114.661C126.347 118.426 129.384 122.21 132.371 126.038C134.837 129.189 137.361 132.292 139.901 135.385C140.823 136.512 141.735 137.647 142.646 138.782C142.993 139.2 143.339 139.617 143.697 140.047C144.198 140.673 144.198 140.673 144.71 141.311C145.017 141.686 145.323 142.061 145.639 142.448C146.236 143.568 146.236 143.568 146.032 144.906C145.902 145.254 145.772 145.602 145.638 145.961C136.551 146.02 127.464 146.047 118.381 145.774C117.742 145.761 117.103 145.747 116.445 145.733C111.474 145.556 108.419 144.372 104.974 140.769C102.878 138.37 100.942 135.849 98.9942 133.331C97.1108 130.9 95.1663 128.523 93.2175 126.145C83.111 113.775 83.111 113.775 83.4214 109.469C84.0858 107.969 84.0858 107.969 85.0222 106.487C85.3668 105.932 85.7114 105.378 86.0665 104.806C86.4398 104.223 86.8131 103.639 87.1978 103.038C87.9635 101.813 88.7292 100.587 89.4949 99.3622C89.8804 98.7517 90.2659 98.1412 90.663 97.5123C92.3395 94.8466 93.9747 92.1564 95.6104 89.4657C96.1507 88.5814 96.6913 87.6973 97.2322 86.8133C97.6101 86.1956 97.9879 85.5779 98.3772 84.9415Z" fill="#FDFDFD"/>
<path d="M56.4192 46.844C57.1054 46.85 57.7917 46.8559 58.4987 46.862C60.6877 46.8854 62.8748 46.9379 65.0632 46.9913C66.5482 47.0123 68.0333 47.0314 69.5184 47.0485C73.1563 47.0946 76.7931 47.1647 80.4303 47.253C79.5437 50.0532 78.4005 52.3555 76.8035 54.8057C76.2754 55.6394 75.7481 56.4737 75.2214 57.3084C74.3573 58.6718 73.493 60.0351 72.6255 61.3963C71.2144 63.6116 69.8155 65.834 68.4285 68.0646C67.9554 68.8208 67.4783 69.5745 66.997 70.3255C66.314 71.3925 65.6453 72.4673 64.979 73.5448C64.5848 74.17 64.1905 74.7951 63.7843 75.4392C62.901 77.1205 62.901 77.1205 63.4884 78.7795C64.4649 80.4815 65.5642 82.0288 66.7457 83.5956C69.0638 86.6809 69.0638 86.6809 69.0638 87.3345C64.83 87.4069 60.7054 87.247 56.501 86.7363C56.3159 87.2175 56.1308 87.6987 55.9401 88.1945C55.3045 89.7274 55.3045 89.7274 54.7063 90.3257C53.7148 90.3816 52.7209 90.3959 51.7278 90.3936C51.0931 90.3935 50.4584 90.3935 49.8044 90.3934C48.7687 90.3888 48.7687 90.3888 47.7121 90.3841C46.6578 90.3828 46.6578 90.3828 45.5821 90.3815C43.3266 90.3782 41.0712 90.3706 38.8158 90.3631C37.291 90.3601 35.7662 90.3573 34.2414 90.3549C30.4942 90.3483 26.7471 90.3382 23 90.3257C25.8081 85.37 28.6563 80.4488 31.637 75.5942C32.3585 74.415 33.0798 73.2357 33.8009 72.0562C34.3686 71.1282 34.3686 71.1282 34.9477 70.1815C36.257 68.0338 37.5583 65.8813 38.8578 63.7277C39.5423 62.5948 40.227 61.4619 40.9116 60.329C41.3541 59.5961 41.796 58.8629 42.2373 58.1293C42.8596 57.0953 43.4841 56.0626 44.1087 55.03C44.6443 54.1416 44.6443 54.1416 45.1908 53.2353C45.5671 52.643 45.9434 52.0508 46.331 51.4406C46.6054 50.8763 46.6054 50.8763 46.8852 50.3006C49.1063 46.28 52.185 46.7064 56.4192 46.844Z" fill="#FDFDFD"/>
</svg>
